<?xml version="1.0" ?><!DOCTYPE svg  PUBLIC '-//W3C//DTD SVG 1.1//EN'  'http://www.w3.org/Graphics/SVG/1.1/DTD/svg11.dtd'><svg enable-background="new 0 0 50 50" id="Layer_1" version="1.1" viewBox="0 0 50 50" xml:space="preserve" xmlns="http://www.w3.org/2000/svg" xmlns:xlink="http://www.w3.org/1999/xlink"><path d="M45,1H5C2.8,1,1,2.8,1,5v40c0,2.2,1.8,4,4,4h40c2.2,0,4-1.8,4-4V5C49,2.8,47.2,1,45,1z" fill="#FE6700"/><path d="M35.4,21.8h-1.6c-0.8,0-1.5-0.8-1.6-1.6c0-4.3-2.9-7.2-7.2-7.2h-4.8c-4.3,0-7.2,3.7-7.2,8v8  c0,4.3,3.7,8,8,8h8c4.3,0,8-3.7,8-8v-5.6C37,22.5,36.3,21.8,35.4,21.8z M20.2,18.6H25c0.8,0,1.6,0.8,1.6,1.6c0,0.8-0.8,1.6-1.6,1.6  h-4.8c-0.8,0-1.6-0.8-1.6-1.6C18.6,19.4,19.4,18.6,20.2,18.6z M29.8,31.4h-9.6c-0.8,0-1.6-0.8-1.6-1.6s0.8-1.6,1.6-1.6h9.6  c0.8,0,1.6,0.8,1.6,1.6S30.6,31.4,29.8,31.4z" fill="#FFFFFF" id="B"/></svg>